<svg xmlns="http://www.w3.org/2000/svg" width="511.52" height="486.519" viewBox="0 0 511.52 486.519">
  <g id="Group_45" data-name="Group 45" transform="translate(-2475 -604)">
    <g id="Group_43" data-name="Group 43" transform="translate(2475 591.499)">
      <g id="Group_42" data-name="Group 42">
        <circle id="Ellipse_12" data-name="Ellipse 12" cx="107.516" cy="107.516" r="107.516" transform="translate(288.989 276.488)" fill="#feda87"/>
      </g>
    </g>
    <g id="Group_44" data-name="Group 44" transform="translate(2475 591.499)">
      <path id="Path_113" data-name="Path 113" d="M396.5,325.142a7.5,7.5,0,0,0-7.5,7.5v29.347a23.258,23.258,0,1,0,17.763,42.885l24.95,24.95a7.5,7.5,0,0,0,10.608-10.607l-24.95-24.95A23.241,23.241,0,0,0,404,361.99V332.643a7.5,7.5,0,0,0-7.5-7.5ZM404.767,384a8.263,8.263,0,1,1-8.263-8.263A8.273,8.273,0,0,1,404.767,384Z" fill="#006bb1"/>
      <path id="Path_114" data-name="Path 114" d="M192.066,166.8a7.5,7.5,0,0,0-9.741,4.2l-25.694,64.6a7.5,7.5,0,1,0,13.939,5.543l25.694-64.6a7.5,7.5,0,0,0-4.2-9.74Z" fill="#006bb1"/>
      <path id="Path_115" data-name="Path 115" d="M221.311,245.236a7.494,7.494,0,0,0,9.884-3.847l28.4-64.6a7.5,7.5,0,0,0-6.866-10.518H217.189a7.5,7.5,0,1,0,0,15h24.049l-23.774,54.084a7.5,7.5,0,0,0,3.847,9.884Z" fill="#006bb1"/>
      <path id="Path_116" data-name="Path 116" d="M126.945,244.093a7.5,7.5,0,0,0,7.5-7.5V222.826h4.05a7.5,7.5,0,0,0,0-15h-4.05V173.852a10.5,10.5,0,0,0-19.377-5.628c-9.274,14.639-26.387,42.938-26.559,43.222a7.5,7.5,0,0,0,6.419,11.379h24.517v13.767a7.5,7.5,0,0,0,7.5,7.5Zm-18.689-36.267c3.275-5.378,7.313-11.985,11.189-18.269v18.269Z" fill="#006bb1"/>
      <path id="Path_117" data-name="Path 117" d="M64.793,200.481c-10.23,14.617-16.335,22.61-19.615,26.9-4.085,5.35-5.95,7.791-4.674,11.938a7.794,7.794,0,0,0,5.069,5.135c.994.332,1.948.649,14.562.649,4.928,0,11.637-.049,20.823-.164a7.5,7.5,0,0,0-.093-15h-.1c-6.392.08-13.168.133-18.828.146,3.574-4.783,8.508-11.532,15.141-21.009,4.141-5.917,6.843-11.513,8.03-16.631a7.2,7.2,0,0,0,.133-.744l.319-2.5a7.356,7.356,0,0,0,.061-.95,24.032,24.032,0,0,0-47.61-4.649A7.5,7.5,0,1,0,52.734,186.5a9.032,9.032,0,0,1,17.882,1.353l-.2,1.545A35.65,35.65,0,0,1,64.793,200.481Z" fill="#006bb1"/>
      <path id="Path_118" data-name="Path 118" d="M109.235,281.763a14.114,14.114,0,0,0-14.1-14.1H62.215a14.114,14.114,0,0,0-14.1,14.1v32.922a14.114,14.114,0,0,0,14.1,14.1H95.137a14.114,14.114,0,0,0,14.1-14.1Zm-15,32.019H63.118V282.665H94.236v31.117Z" fill="#006bb1"/>
      <path id="Path_119" data-name="Path 119" d="M187.711,281.763a14.114,14.114,0,0,0-14.1-14.1H140.691a14.114,14.114,0,0,0-14.1,14.1v32.922a14.114,14.114,0,0,0,14.1,14.1h32.922a14.114,14.114,0,0,0,14.1-14.1Zm-15,32.019H141.593V282.665h31.118Z" fill="#006bb1"/>
      <path id="Path_120" data-name="Path 120" d="M266.187,281.763a14.114,14.114,0,0,0-14.1-14.1H219.168a14.114,14.114,0,0,0-14.1,14.1v32.922a14.114,14.114,0,0,0,14.1,14.1H252.09a14.113,14.113,0,0,0,14.1-14.1Zm-15,32.019H220.07V282.665h31.117Z" fill="#006bb1"/>
      <path id="Path_121" data-name="Path 121" d="M327.979,228.256V195.333a14.114,14.114,0,0,0-14.1-14.1H280.959a14.114,14.114,0,0,0-14.1,14.1v32.923a14.114,14.114,0,0,0,14.1,14.1h32.922a14.114,14.114,0,0,0,14.1-14.1Zm-15-.9H281.862V196.236h31.117Z" fill="#006bb1"/>
      <path id="Path_122" data-name="Path 122" d="M358.985,181.236a14.114,14.114,0,0,0-14.1,14.1v32.923a14.114,14.114,0,0,0,14.1,14.1h32.922a14.114,14.114,0,0,0,14.1-14.1V195.334a14.114,14.114,0,0,0-14.1-14.1ZM391,227.354H359.887V196.236H391Z" fill="#006bb1"/>
      <path id="Path_123" data-name="Path 123" d="M62.215,402.65H95.137a14.114,14.114,0,0,0,14.1-14.1V355.63a14.114,14.114,0,0,0-14.1-14.1H62.215a14.114,14.114,0,0,0-14.1,14.1v32.922A14.115,14.115,0,0,0,62.215,402.65Zm.9-46.118H94.236v31.117H63.118Z" fill="#006bb1"/>
      <path id="Path_124" data-name="Path 124" d="M140.691,402.65h32.922a14.114,14.114,0,0,0,14.1-14.1V355.63a14.114,14.114,0,0,0-14.1-14.1H140.691a14.114,14.114,0,0,0-14.1,14.1v32.922a14.115,14.115,0,0,0,14.1,14.1Zm.9-46.118h31.118v31.117H141.594Z" fill="#006bb1"/>
      <path id="Path_125" data-name="Path 125" d="M252.09,341.532H219.168a14.114,14.114,0,0,0-14.1,14.1v32.922a14.114,14.114,0,0,0,14.1,14.1H252.09a14.113,14.113,0,0,0,14.1-14.1V355.63a14.114,14.114,0,0,0-14.1-14.1Zm-.9,46.118H220.07V356.533h31.117Z" fill="#006bb1"/>
      <path id="Path_126" data-name="Path 126" d="M267.02,422.813H51.833A36.874,36.874,0,0,1,15,385.981V323.96a7.5,7.5,0,0,0-15,0v62.021a51.891,51.891,0,0,0,51.833,51.832H267.02a7.5,7.5,0,0,0,0-15Z" fill="#006bb1"/>
      <path id="Path_127" data-name="Path 127" d="M7.5,299.5A7.5,7.5,0,0,0,15,292V141.539H352.387a7.5,7.5,0,0,0,0-15H15V101.664A36.874,36.874,0,0,1,51.833,64.832h52.223V80.825a20.985,20.985,0,0,0,41.97,0V64.832h150.62V80.825a20.984,20.984,0,1,0,41.969,0V64.832h52.223a36.874,36.874,0,0,1,36.833,36.832v24.875H384.349a7.5,7.5,0,1,0,0,15h43.322v110.49a7.5,7.5,0,0,0,15,0V101.664a51.891,51.891,0,0,0-51.833-51.832H338.615V33.486a20.984,20.984,0,1,0-41.969,0V49.833H146.026V33.486a20.985,20.985,0,0,0-41.97,0V49.833H51.833A51.89,51.89,0,0,0,0,101.664V292A7.5,7.5,0,0,0,7.5,299.5ZM311.646,33.486a5.984,5.984,0,1,1,11.969,0v47.34a5.984,5.984,0,1,1-11.969,0Zm-192.59,0a5.985,5.985,0,0,1,11.97,0v47.34a5.985,5.985,0,0,1-11.97,0Z" fill="#006bb1"/>
      <path id="Path_128" data-name="Path 128" d="M507.449,353.6a7.5,7.5,0,1,0-14.469,3.957,99.979,99.979,0,0,1,3.251,18.949H484.354a7.5,7.5,0,0,0,0,15h11.885A99.6,99.6,0,0,1,472.3,449.19l-8.37-8.37a7.5,7.5,0,1,0-10.607,10.6l8.37,8.371A99.594,99.594,0,0,1,404,483.739V471.852a7.5,7.5,0,0,0-15,0v11.887A99.591,99.591,0,0,1,331.318,459.8l8.371-8.371a7.5,7.5,0,1,0-10.607-10.607l-8.371,8.371A99.6,99.6,0,0,1,296.768,391.5h11.886a7.5,7.5,0,0,0,0-15H296.768a99.594,99.594,0,0,1,23.943-57.686l8.371,8.371a7.5,7.5,0,1,0,10.606-10.607l-8.37-8.37A99.594,99.594,0,0,1,389,284.269v11.886a7.5,7.5,0,0,0,15,0V284.277a99.421,99.421,0,0,1,57.739,23.881l-8.424,8.424a7.5,7.5,0,0,0,10.608,10.607l8.406-8.406a101.637,101.637,0,0,1,8.6,11.586,7.5,7.5,0,0,0,12.652-8.056A114.644,114.644,0,1,0,507.449,353.6Z" fill="#006bb1"/>
    </g>
  </g>
</svg>
