<svg xmlns="http://www.w3.org/2000/svg" width="539.319" height="424.915" viewBox="0 0 539.319 424.915">
  <g id="Group_49" data-name="Group 49" transform="translate(-1876.681 226)">
    <rect id="Rectangle-path" width="98.081" height="178.546" rx="2" transform="translate(1930.483 -124)" fill="#feda87"/>
    <circle id="Ellipse_10" data-name="Ellipse 10" cx="49.5" cy="49.5" r="49.5" transform="translate(2317 -226)" fill="#4edc24" opacity="0.33"/>
    <g id="Group_33" data-name="Group 33" transform="translate(1876.681 -176.141)">
      <path id="Shape" d="M26.79,375.056H509a26.79,26.79,0,0,0,26.79-26.79v-8.93A26.79,26.79,0,0,0,509,312.547h-64.84a48.927,48.927,0,0,0,11.037-26.79h9.046A71.439,71.439,0,0,0,523.694,174.7L428.439,31.817A71.287,71.287,0,0,0,368.992,0H26.79A26.79,26.79,0,0,0,0,26.79V276.827a8.93,8.93,0,0,0,8.93,8.93h232.4a48.927,48.927,0,0,0,11.037,26.79H26.79A26.79,26.79,0,0,0,0,339.336v8.93A26.79,26.79,0,0,0,26.79,375.056ZM406.31,312.547a31.2,31.2,0,0,1-30.8-26.79h61.616A31.2,31.2,0,0,1,406.31,312.547Zm-48.891-26.79a48.927,48.927,0,0,0,11.037,26.79H328.076a48.927,48.927,0,0,0,11.037-26.79Zm123.6-142.878H357.2a8.93,8.93,0,0,1-8.93-8.93V71.439a8.93,8.93,0,0,1,8.93-8.93h70.243ZM17.86,205.388h26.79v8.93a26.79,26.79,0,0,0,26.79,26.79h62.509a26.79,26.79,0,0,0,26.79-26.79v-8.93H366.126a8.93,8.93,0,1,0,0-17.86H160.738V71.439a26.79,26.79,0,0,0-26.79-26.79H71.439a26.79,26.79,0,0,0-26.79,26.79V187.528H17.86V26.79a8.93,8.93,0,0,1,8.93-8.93h342.2A53.463,53.463,0,0,1,413.57,41.721l1.956,2.929H357.2a26.79,26.79,0,0,0-26.79,26.79v62.509a26.79,26.79,0,0,0,26.79,26.79H492.93l15.9,23.861c.643.947,1.116,1.956,1.688,2.929H410.775a8.93,8.93,0,1,0,0,17.86H517.148a53.7,53.7,0,0,1-52.9,62.509H17.86Zm125.019,8.93a8.93,8.93,0,0,1-8.93,8.93H71.439a8.93,8.93,0,0,1-8.93-8.93V71.439a8.93,8.93,0,0,1,8.93-8.93h62.509a8.93,8.93,0,0,1,8.93,8.93Zm116.544,71.439h61.616a31.1,31.1,0,0,1-61.616,0ZM17.86,339.336a8.93,8.93,0,0,1,8.93-8.93H509a8.93,8.93,0,0,1,8.93,8.93v8.93A8.93,8.93,0,0,1,509,357.2H26.79a8.93,8.93,0,0,1-8.93-8.93Z" transform="translate(0 0)" fill="#006bb1"/>
      <path id="Shape-2" data-name="Shape" d="M110.3,5H47.79A26.79,26.79,0,0,0,21,31.79V94.3a26.79,26.79,0,0,0,26.79,26.79H110.3a26.79,26.79,0,0,0,26.79-26.79V31.79A26.79,26.79,0,0,0,110.3,5Zm8.93,89.3a8.93,8.93,0,0,1-8.93,8.93H47.79a8.93,8.93,0,0,1-8.93-8.93V31.79a8.93,8.93,0,0,1,8.93-8.93H110.3a8.93,8.93,0,0,1,8.93,8.93Z" transform="translate(166.528 39.65)" fill="#006bb1"/>
      <path id="Shape-3" data-name="Shape" d="M44.72,9H17.93a8.93,8.93,0,0,0,0,17.86H44.72A8.93,8.93,0,0,0,44.72,9Z" transform="translate(71.369 71.369)" fill="#006bb1"/>
      <path id="Shape-4" data-name="Shape" d="M44.72,13H17.93a8.93,8.93,0,1,0,0,17.86H44.72a8.93,8.93,0,0,0,0-17.86Z" transform="translate(71.369 103.089)" fill="#006bb1"/>
    </g>
    <circle id="Ellipse_9" data-name="Ellipse 9" cx="34" cy="34" r="34" transform="translate(2333 -210)" fill="#4edc24"/>
  </g>
</svg>
