<svg xmlns="http://www.w3.org/2000/svg" width="443.662" height="480" viewBox="0 0 443.662 480">
  <g id="Group_130" data-name="Group 130" transform="translate(-6296 988)">
    <g id="Group_129" data-name="Group 129">
      <path id="Path_284" data-name="Path 284" d="M384,154.7V80a8.1,8.1,0,0,0-2.3-5.7l-56-56A8.1,8.1,0,0,0,320,16H40A24.071,24.071,0,0,0,16,40V472a24.071,24.071,0,0,0,24,24H360a24.071,24.071,0,0,0,24-24V154.7ZM328,43.3,356.7,72H328ZM368,472a8.024,8.024,0,0,1-8,8H40a8.024,8.024,0,0,1-8-8V40a8.024,8.024,0,0,1,8-8H312V80a8.024,8.024,0,0,0,8,8h48Z" transform="translate(6280 -1004)" fill="#006bb1"/>
      <g id="Group_128" data-name="Group 128" transform="translate(100.427 380.938)">
        <g id="Group_120" data-name="Group 120" transform="translate(6258.573 -1313.082)">
          <path id="Path_69" data-name="Path 69" d="M106.051,163.851V120.669a7.151,7.151,0,0,1,7.15-7.15H227.185a7.151,7.151,0,0,1,7.15,7.15v43.182a7.151,7.151,0,0,1-7.15,7.15H113.2a7.151,7.151,0,0,1-7.15-7.151Z" transform="translate(-82.867 -64.972)" fill="#feda87"/>
          <circle id="Ellipse_7" data-name="Ellipse 7" cx="13.705" cy="13.705" r="13.705" transform="translate(23.78 127.307)" fill="#feda87"/>
          <circle id="Ellipse_8" data-name="Ellipse 8" cx="13.705" cy="13.705" r="13.705" transform="translate(122.867 127.307)" fill="#feda87"/>
          <g id="Group_32" data-name="Group 32" transform="translate(0 0)">
            <path id="Path_74" data-name="Path 74" d="M241.328,60.275a6.158,6.158,0,0,0,6.151-6.152V43.608a6.159,6.159,0,0,0-6.151-6.152H203.052a6.158,6.158,0,0,0-6.151,6.152V54.123a6.159,6.159,0,0,0,6.151,6.152Zm-38.012-16.4h37.749V53.86H203.316Z" transform="translate(-134.864 -21.438)" fill="#006bb1"/>
            <path id="Path_75" data-name="Path 75" d="M98.551,116.408V159.59a10.37,10.37,0,0,0,10.358,10.357H222.892A10.37,10.37,0,0,0,233.25,159.59V116.408a10.37,10.37,0,0,0-10.358-10.358H217a3.207,3.207,0,1,0,0,6.415h5.891a3.947,3.947,0,0,1,3.943,3.943V159.59a3.947,3.947,0,0,1-3.943,3.943H108.909a3.947,3.947,0,0,1-3.943-3.943V116.408a3.947,3.947,0,0,1,3.943-3.943h93.124a3.207,3.207,0,0,0,0-6.415H108.909a10.37,10.37,0,0,0-10.358,10.358Z" transform="translate(-78.574 -60.697)" fill="#006bb1"/>
            <path id="Path_76" data-name="Path 76" d="M225.2,204.554,209.4,177.18a20.537,20.537,0,0,0,13.939-19.421V34.753A34.744,34.744,0,0,0,188.586,0H89.744A34.792,34.792,0,0,0,54.992,34.753V109.14a3.207,3.207,0,0,0,6.415,0V34.753A28.37,28.37,0,0,1,89.744,6.415h98.842a28.336,28.336,0,0,1,28.338,28.338V137.818H205.014a16.938,16.938,0,0,0-16.6-13.7H89.323a16.938,16.938,0,0,0-16.6,13.7H61.407v-13.71a3.207,3.207,0,1,0-6.415,0v16.917c0,18.639-.083,17.914.284,20.112a20.572,20.572,0,0,0,13.653,16.047l-15.8,27.37a9.622,9.622,0,0,0,16.666,9.622l4.558-7.894H203.981l4.558,7.894a9.622,9.622,0,0,0,16.666-9.622Zm-26.3-63.528a10.5,10.5,0,1,1-10.5-10.5A10.509,10.509,0,0,1,198.908,141.025Zm-23.748-10.5a16.887,16.887,0,0,0,0,20.994H102.575a16.893,16.893,0,0,0,0-20.994Zm-85.836,0a10.5,10.5,0,1,1-10.5,10.5A10.512,10.512,0,0,1,89.324,130.528Zm-16.607,13.7a16.951,16.951,0,0,0,16.591,13.7h99.1a16.957,16.957,0,0,0,16.607-13.7h11.906v13.526a14.111,14.111,0,0,1-14.091,14.091H75.5a14.105,14.105,0,0,1-14-12.5c-.124-1.106-.092-.347-.092-15.114h11.31Zm-8.48,66.736a3.207,3.207,0,0,1-5.555-3.207l17.03-29.5h7.407Zm13.817-11.1,3.7-6.415H196.574l3.7,6.415Zm7.407-12.83,5.065-8.773H187.8l5.065,8.773Zm133.014,25.1a3.206,3.206,0,0,1-4.381-1.174l-18.882-32.7h7.407l17.03,29.5A3.205,3.205,0,0,1,218.475,212.143Z" transform="translate(-51.839 0)" fill="#006bb1"/>
          </g>
        </g>
        <g id="Group_119" data-name="Group 119" transform="translate(6382.846 -1326.801)">
          <path id="Path_274" data-name="Path 274" d="M579.5,901.008h-1.032a.8.8,0,0,0-.738,0h-2.065a1.136,1.136,0,0,0-.885,0H573.6c-.817-.158-1.653-.089-2.474-.2a37.191,37.191,0,0,1-14.5-5.3,36.068,36.068,0,0,1-6.9-5.5,37.386,37.386,0,0,1-10.638-21.489,48.481,48.481,0,0,1-.161-8.161,33.58,33.58,0,0,1,2.991-12.389,38.316,38.316,0,0,1,18.3-18.954,33.314,33.314,0,0,1,12.345-3.484c5.236-.353,10.453-.22,15.527,1.444A38.916,38.916,0,0,1,600.6,833.72a37.941,37.941,0,0,1,10.282,12.936,35.807,35.807,0,0,1,3.386,11.092c.113.845.046,1.706.19,2.549v.738a1.134,1.134,0,0,0,0,.885v2.655a1.134,1.134,0,0,0,0,.885v.885c-.158.817-.088,1.652-.2,2.473a37.1,37.1,0,0,1-5.3,14.5,36.021,36.021,0,0,1-5.545,6.955A37.415,37.415,0,0,1,582.269,900.8C581.351,900.936,580.417,900.855,579.5,901.008Z" transform="translate(-538.832 -825.368)" fill="#006bb1"/>
          <path id="Path_277" data-name="Path 277" d="M601.274,855.9a31.848,31.848,0,1,1-31.883,31.778A31.8,31.8,0,0,1,601.274,855.9Z" transform="translate(-563.367 -849.881)" fill="#feda87"/>
          <path id="Path_278" data-name="Path 278" d="M663.785,975.1a2.9,2.9,0,0,1-2.677-1.835,2.854,2.854,0,0,1,.7-3.3c2.67-2.681,5.337-5.367,8.037-8.018.5-.492.58-.743.025-1.284-2.728-2.657-5.408-5.365-8.092-8.066a2.966,2.966,0,0,1,1.78-5.078,2.965,2.965,0,0,1,2.508.978c2.7,2.716,5.429,5.413,8.12,8.142.388.393.574.4.963,0,2.708-2.747,5.443-5.469,8.175-8.193a2.863,2.863,0,0,1,3.166-.764,2.809,2.809,0,0,1,1.954,2.521,3.045,3.045,0,0,1-1.04,2.559c-2.666,2.65-5.31,5.323-7.988,7.962-.431.425-.52.641-.028,1.123q4.11,4.021,8.14,8.123a2.965,2.965,0,1,1-4.234,4.145c-2.716-2.7-5.434-5.409-8.123-8.14-.413-.419-.618-.392-1.014.009-2.676,2.71-5.384,5.389-8.068,8.091A3.289,3.289,0,0,1,663.785,975.1Z" transform="translate(-636.801 -923.413)" fill="#006bb1"/>
        </g>
      </g>
      <path id="Line_7" data-name="Line 7" d="M242,7.5H0v-15H242Z" transform="translate(6359 -668.5)" fill="#006bb1"/>
      <path id="Line_7-2" data-name="Line 7" d="M242,7.5H0v-15H242Z" transform="translate(6359 -639.5)" fill="#006bb1"/>
      <path id="Line_7-3" data-name="Line 7" d="M242,7.5H0v-15H242Z" transform="translate(6359 -610.5)" fill="#006bb1"/>
      <path id="Line_7-4" data-name="Line 7" d="M242,7.5H0v-15H242Z" transform="translate(6359 -581.5)" fill="#006bb1"/>
      <ellipse id="Ellipse_30" data-name="Ellipse 30" cx="85.111" cy="81.611" rx="85.111" ry="81.611" transform="translate(6564.981 -748) rotate(11)" fill="#feda87"/>
      <path id="Path_272" data-name="Path 272" d="M91.2,208.931a8.77,8.77,0,0,1,2.075-2.185q15.125-14.44,30.306-28.819c1.238-1.166,1.208-1.713.045-2.919q-15-15.571-29.833-31.309c-1.082-1.147-1.61-1.085-2.645-.035q-3.869,3.917-7.964,7.607c-1.042.94-1.1,1.485-.091,2.515,3.815,3.877,7.528,7.855,11.275,11.8.451.474.885.963,1.527,1.663a70.971,70.971,0,0,1-16.838-.932c-19.334-3.5-34.986-13.139-47.028-28.57A71.36,71.36,0,0,1,17.766,105.14c-3.748-22.518,1.525-42.8,15.751-60.641A70.957,70.957,0,0,1,72.971,19.028c27.217-6.586,51.337-.253,71.758,19.053A70.307,70.307,0,0,1,166.554,80.49c3.811,27.837-5.166,51.168-26.479,69.6-1.427,1.233-1.694,1.929-.4,3.449,2.726,3.206,5.277,6.566,7.794,9.942.782,1.048,1.224,1.008,2.183.22,17.088-14.041,28.507-31.767,32.381-53.521,6.686-37.541-5.146-68.514-35.3-92.047A85.5,85.5,0,0,0,105.742.983,92,92,0,0,0,37.833,166.276a90.573,90.573,0,0,0,47.855,17.415c3.263.215,6.516.136,9.786.257.193.738-.473.927-.805,1.246-4.12,3.954-8.238,7.915-12.434,11.789-1.1,1.013-1.363,1.606-.15,2.8,3,2.956,5.817,6.086,8.708,9.146Z" transform="matrix(-0.985, 0.174, -0.174, -0.985, 6739.662, -577.398)" fill="#006bb1"/>
      <path id="Path_285" data-name="Path 285" d="M4.064-155.278h60.93v.127q-5.384,8.3-6.08,8.867H42.635a21.264,21.264,0,0,1,4.56,9.564H64.55q.317.063.317.253-5.827,8.74-5.954,8.74H47.639q-.38,4.5-4.307,10.83-5.194,6.4-9.944,8.3a39.317,39.317,0,0,1-16.974,4.244v.127q0,.633,36.672,43.512H36.935q-35.722-41.612-35.722-41.8v-8.424l.127-.317a54.159,54.159,0,0,0,7.41.443q20.014,0,24.891-12.984a10.481,10.481,0,0,0,.76-3.927H-1.827a.224.224,0,0,1-.253-.253q6.017-8.74,6.144-8.74H32.818v-.127q-2.47-5-9.564-7.79a29.852,29.852,0,0,0-9.12-1.647H-1.953v-.317Q3.874-155.278,4.064-155.278Z" transform="translate(6601.5 -533.579)" fill="#006bb1"/>
    </g>
  </g>
</svg>
